<?xml version="1.0" standalone="no"?><!DOCTYPE svg PUBLIC "-//W3C//DTD SVG 1.1//EN" "http://www.w3.org/Graphics/SVG/1.1/DTD/svg11.dtd"><svg t="1667457823839" class="icon" viewBox="0 0 1024 1024" version="1.1" xmlns="http://www.w3.org/2000/svg" p-id="917" xmlns:xlink="http://www.w3.org/1999/xlink" width="200" height="200"><path d="M507.4816 858.496a32 32 0 0 1 15.4752 42.5216l-16.2304 34.8032a32 32 0 1 1-57.9968-27.0464l16.2176-34.8032a32 32 0 0 1 42.5344-15.488z m-179.2 0a32 32 0 0 1 15.4752 42.5216l-16.2304 34.8032a32 32 0 1 1-57.9968-27.0464l16.2176-34.8032a32 32 0 0 1 42.5344-15.488z m371.2 0a32 32 0 0 1 15.4752 42.5216l-16.2304 34.8032a32 32 0 1 1-57.9968-27.0464l16.2176-34.8032a32 32 0 0 1 42.5344-15.488zM270.2464 709.9904a38.4 38.4 0 0 1 18.5728 51.0336l-21.632 46.4a38.4 38.4 0 1 1-69.6064-32.448l21.632-46.4a38.4 38.4 0 0 1 51.0336-18.5856z m177.0496 0a38.4 38.4 0 0 1 18.5728 51.0336l-21.632 46.4a38.4 38.4 0 1 1-69.6064-32.448l21.632-46.4a38.4 38.4 0 0 1 51.0336-18.5856z m192 0a38.4 38.4 0 0 1 18.5728 51.0336l-21.632 46.4a38.4 38.4 0 1 1-69.6064-32.448l21.632-46.4a38.4 38.4 0 0 1 51.0336-18.5856z m179.2 0a38.4 38.4 0 0 1 18.5728 51.0336l-21.632 46.4a38.4 38.4 0 1 1-69.6064-32.448l21.632-46.4a38.4 38.4 0 0 1 51.0336-18.5856zM531.2 44.8c118.784 0 220.2112 81.3696 248.32 193.4848l0.2304 1.0112 2.1376 0.3456c89.1008 15.4752 156.928 92.288 158.8736 185.0496l0.0384 4.1088v12.8c0 106.0352-85.9648 192-192 192h-460.8c-106.0352 0-192-85.9648-192-192v-12.8c0-103.36 81.664-187.6352 184-191.8336l3.2512-0.1024 0.7552-2.88c29.1968-108.48 127.3728-187.136 242.688-189.1456z m0 64c-95.8208 0-176.6272 70.6432-190.0544 164.544l-3.9296 27.4688L288 300.8c-70.6944 0-128 57.3056-128 128v12.8c0 70.6944 57.3056 128 128 128h460.8c70.6944 0 128-57.3056 128-128v-12.8c0-69.4528-55.3984-126.208-124.672-127.9488l-27.0464-0.6912-3.8144-26.7776C707.84 179.456 627.0336 108.8 531.2 108.8z" p-id="918" fill="#1296db"></path></svg>